<?xml version="1.0" encoding="iso-8859-1"?>
<!-- Generator: Adobe Illustrator 19.0.0, SVG Export Plug-In . SVG Version: 6.00 Build 0)  -->
<svg version="1.1" id="Layer_1" xmlns="http://www.w3.org/2000/svg" xmlns:xlink="http://www.w3.org/1999/xlink" x="0px" y="0px"
	 viewBox="0 0 503.326 503.326" style="enable-background:new 0 0 503.326 503.326;" xml:space="preserve">
<g>
	<path style="fill:#F8F2EA;" d="M26.037,251.663h451.254L436.974,48.225c-1.796-7.906-8.825-13.512-16.922-13.512H83.277
		c-8.097,0-15.126,5.606-16.922,13.512L26.037,251.663z"/>
	<g>
		<path style="fill:#B6D4E9;" d="M60.749,251.663c0-43.138,42.739-78.102,95.458-78.102s95.458,34.964,95.458,78.102H60.749z"/>
		<path style="fill:#B6D4E9;" d="M251.664,251.663c0-43.138,42.739-78.102,95.458-78.102s95.458,34.964,95.458,78.102H251.664z"/>
	</g>
	<path id="SVGCleanerId_0" style="fill:#8B5B46;" d="M0.003,433.9v17.356c0,9.589,7.767,17.356,17.356,17.356h58.698
		c6.569,0,12.583-3.714,15.525-9.598l12.557-25.114H0.003z"/>
	<path style="fill:#8B5B46;" d="M399.19,433.9l12.557,25.114c2.942,5.884,8.956,9.598,15.525,9.598h58.698
		c9.589,0,17.356-7.767,17.356-17.356V433.9H399.19z"/>
	<polygon style="fill:#C8C0B9;" points="0,433.9 503.322,433.9 503.322,373.154 0,373.154 	"/>
	<path style="fill:#8697CB;" d="M503.326,373.154H0.003V269.019c0-9.589,7.767-17.356,17.356-17.356h468.61
		c9.589,0,17.356,7.767,17.356,17.356V373.154z"/>
	<g>
		<path id="SVGCleanerId_0_1_" style="fill:#8B5B46;" d="M0.003,433.9v17.356c0,9.589,7.767,17.356,17.356,17.356h58.698
			c6.569,0,12.583-3.714,15.525-9.598l12.557-25.114H0.003z"/>
	</g>
	<g>
		<path style="fill:#5F72A3;" d="M459.936,286.375c-4.79,0-8.678,3.879-8.678,8.678s3.888,8.678,8.678,8.678h43.39v-17.356H459.936z
			"/>
		<path style="fill:#5F72A3;" d="M459.936,321.086c-4.79,0-8.678,3.879-8.678,8.678c0,4.799,3.888,8.678,8.678,8.678h43.39v-17.356
			H459.936z"/>
		<path style="fill:#5F72A3;" d="M34.715,303.731c4.79,0,8.678-3.879,8.678-8.678s-3.888-8.678-8.678-8.678H0.003v17.356H34.715z"/>
		<path style="fill:#5F72A3;" d="M34.715,338.442c4.79,0,8.678-3.879,8.678-8.678c0-4.799-3.888-8.678-8.678-8.678H0.003v17.356
			H34.715z"/>
	</g>
</g>
<g>
</g>
<g>
</g>
<g>
</g>
<g>
</g>
<g>
</g>
<g>
</g>
<g>
</g>
<g>
</g>
<g>
</g>
<g>
</g>
<g>
</g>
<g>
</g>
<g>
</g>
<g>
</g>
<g>
</g>
</svg>
