<?xml version="1.0" encoding="iso-8859-1"?>
<!-- Generator: Adobe Illustrator 19.0.0, SVG Export Plug-In . SVG Version: 6.00 Build 0)  -->
<svg version="1.1" id="Layer_1" xmlns="http://www.w3.org/2000/svg" xmlns:xlink="http://www.w3.org/1999/xlink" x="0px" y="0px"
	 viewBox="0 0 464.005 464.005" style="enable-background:new 0 0 464.005 464.005;" xml:space="preserve">
<g>
	<path style="fill:#33CBDB;" d="M252.103,137.114l46.266,23.856c7.212-12.028,14.452-25.491,21.348-39.935
		c28.552-59.808,40.386-113.693,26.43-120.356C332.192-5.983,297.732,37.1,269.18,96.908
		C262.547,110.803,256.818,124.376,252.103,137.114z"/>
	<path style="fill:#17B7CB;" d="M346.148,0.68c-13.956-6.662-48.415,36.421-76.967,96.229
		c-6.633,13.895-12.363,27.468-17.078,40.205l22.95,11.834c5.438-19.734,14.348-43.365,26.127-68.039
		c15.607-32.691,32.96-60.309,47.784-77.613C348.17,2.165,347.273,1.217,346.148,0.68z"/>
	<path style="fill:#33CBDB;" d="M211.907,137.113c-4.715-12.737-10.444-26.31-17.077-40.204
		c-28.553-59.808-63.012-102.892-76.967-96.23s-2.122,60.547,26.431,120.355c6.895,14.443,14.135,27.906,21.347,39.934
		L211.907,137.113z"/>
	<path style="fill:#17B7CB;" d="M188.197,149.338c-11.762-16.524-24.309-37.96-35.903-62.246
		C136.463,53.932,125.8,22.63,121.795,0.15c-1.426-0.113-2.773-0.024-3.932,0.529c-13.955,6.662-2.122,60.547,26.431,120.355
		c6.9,14.453,14.142,27.909,21.357,39.928L188.197,149.338z"/>
	<g>
		<g>
			
				<ellipse transform="matrix(-0.7071 0.7071 -0.7071 -0.7071 481.3942 449.3465)" style="fill:#05A1B9;" cx="147.634" cy="324.373" rx="53.082" ry="31.436"/>
		</g>
	</g>
	<g>
		<g>
			
				<ellipse transform="matrix(-0.7071 -0.7071 0.7071 -0.7071 310.7139 777.4417)" style="fill:#05A1B9;" cx="316.37" cy="324.37" rx="53.082" ry="31.436"/>
		</g>
	</g>
	<g>
		<g>
			<circle style="fill:#17B7CB;" cx="232.005" cy="360" r="104"/>
		</g>
	</g>
	<g>
		<g>
			<path style="fill:#0DABC1;" d="M168.005,376c0-57.438,46.563-104,104-104c6.143,0,12.126,0.637,17.976,1.658
				C273.415,262.512,253.472,256,232.005,256c-57.438,0-104,46.563-104,104c0,51.295,37.171,93.813,86.024,102.342
				C186.272,443.668,168.005,411.971,168.005,376z"/>
		</g>
	</g>
	<g>
		<g>
			<path style="fill:#FFD7B9;" d="M232.005,360c-39.765,0-72,32.235-72,72c0,1.039,0.112,2.051,0.155,3.079
				C178.838,452.956,204.11,464,232.005,464s53.167-11.044,71.845-28.921c0.043-1.028,0.155-2.04,0.155-3.079
				C304.005,392.235,271.77,360,232.005,360z"/>
		</g>
	</g>
	<g>
		<g>
			<path style="fill:#F1C8A8;" d="M264.62,448c-34.332,0-65.437-13.593-88.424-35.596c-0.02-0.473-4.534-4.392-10.173-9.176
				c-3.851,8.817-6.018,18.536-6.018,28.772c0,1.039,0.112,2.051,0.155,3.079C178.838,452.956,204.11,464,232.005,464
				c22.191,0,42.66-7.072,59.532-18.932C282.853,446.939,273.868,448,264.62,448z"/>
		</g>
	</g>
	<g>
		<g>
			<path style="fill:#05A1B9;" d="M232.005,336c33.289,0,63.097-14.605,83.611-37.662C296.675,272.699,266.328,256,232.005,256
				s-64.67,16.699-83.611,42.338C168.908,321.395,198.716,336,232.005,336z"/>
		</g>
	</g>
	<g>
		<g>
			<circle style="fill:#33CBDB;" cx="232.005" cy="224" r="96"/>
		</g>
	</g>
	<path style="fill:#17B7CB;" d="M292.005,272c0-33.137-26.863-60-60-60c-23.484,0-43.803,13.5-53.657,33.155
		c-1.531-6.806-2.343-13.885-2.343-21.155c0-46.156,32.586-84.676,76-93.882c-6.455-1.368-13.137-2.118-20-2.118
		c-53.02,0-96,42.98-96,96c0,50.74,39.366,92.28,89.222,95.759c0.098,0.007,0.197,0.012,0.295,0.019
		c0.897,0.06,1.798,0.107,2.703,0.142c0.24,0.009,0.479,0.02,0.72,0.027c1.017,0.032,2.036,0.054,3.06,0.054
		c1.002,0,1.999-0.021,2.993-0.052c0.362-0.011,0.722-0.029,1.083-0.044c0.617-0.027,1.232-0.058,1.846-0.097
		c0.448-0.028,0.896-0.057,1.342-0.091c0.503-0.039,1.004-0.085,1.505-0.132c1.025-0.094,2.045-0.206,3.06-0.333
		c0.294-0.037,0.589-0.069,0.881-0.108c0.576-0.078,1.149-0.165,1.721-0.253c0.394-0.06,0.787-0.121,1.179-0.186
		c0.502-0.083,1.004-0.169,1.503-0.26c0.701-0.127,1.399-0.263,2.094-0.405c0.179-0.037,0.359-0.069,0.538-0.107
		c0.084-0.018,0.169-0.033,0.254-0.05c-0.005-0.001-0.011-0.003-0.016-0.004c10.449-2.245,20.264-6.2,29.166-11.524
		C287.973,296.617,292.005,284.789,292.005,272z"/>
	<g>
		<g>
			<circle style="fill:#FFD7B9;" cx="232.005" cy="272" r="48"/>
		</g>
	</g>
	<g>
		<g>
			<path style="fill:#F1C8A8;" d="M208.005,272c0-22.358,15.309-41.09,36-46.427c-3.842-0.991-7.849-1.573-12-1.573
				c-26.51,0-48,21.49-48,48c0,26.51,21.49,48,48,48c4.151,0,8.158-0.582,12-1.573C223.314,313.09,208.005,294.358,208.005,272z"/>
		</g>
	</g>
	<path style="fill:#D2A582;" d="M256.005,260c-4.422,0-8,3.578-8,8c0,2.203-1.797,4-4,4s-4-1.797-4-4v-20c0-4.422-3.578-8-8-8
		s-8,3.578-8,8v20c0,2.203-1.797,4-4,4s-4-1.797-4-4c0-4.422-3.578-8-8-8s-8,3.578-8,8c0,11.031,8.969,20,20,20
		c4.506,0,8.653-1.514,12-4.036c3.347,2.522,7.494,4.036,12,4.036c11.031,0,20-8.969,20-20C264.005,263.578,260.427,260,256.005,260
		z"/>
	<g>
		<g>
			<g>
				<ellipse style="fill:#FF6472;" cx="232.005" cy="232" rx="24" ry="16"/>
			</g>
		</g>
		<g>
			<g>
				<path style="fill:#D25566;" d="M224.005,232c0-6.957,6.7-12.816,16-15.021c-2.514-0.596-5.18-0.979-8-0.979
					c-13.255,0-24,7.163-24,16c0,8.836,10.745,16,24,16c2.82,0,5.486-0.384,8-0.979C230.705,244.816,224.005,238.957,224.005,232z"
					/>
			</g>
		</g>
		<g>
			<g>
				<circle style="fill:#FF919B;" cx="240.005" cy="232" r="8"/>
			</g>
		</g>
	</g>
	<g>
		<g>
			<path style="fill:#6E4141;" d="M192.005,216L192.005,216c-4.418,0-8-3.582-8-8v-8c0-4.418,3.582-8,8-8l0,0c4.418,0,8,3.582,8,8v8
				C200.005,212.418,196.423,216,192.005,216z"/>
		</g>
	</g>
	<g>
		<g>
			<path style="fill:#6E4141;" d="M272.005,216L272.005,216c-4.418,0-8-3.582-8-8v-8c0-4.418,3.582-8,8-8l0,0c4.418,0,8,3.582,8,8v8
				C280.005,212.418,276.423,216,272.005,216z"/>
		</g>
	</g>
	<g>
		<g>
			
				<ellipse transform="matrix(-0.7071 -0.7071 0.7071 -0.7071 -9.5489 850.9771)" style="fill:#17B7CB;" cx="171.469" cy="427.466" rx="42.627" ry="29.183"/>
		</g>
	</g>
	<g>
		<g>
			
				<ellipse transform="matrix(-0.7071 0.7071 -0.7071 -0.7071 801.6603 522.8872)" style="fill:#17B7CB;" cx="292.537" cy="427.473" rx="42.627" ry="29.183"/>
		</g>
	</g>
	<g>
		<g>
			<path style="fill:#05A1B9;" d="M173.773,448.103c-16.647-16.647-20.904-39.381-9.507-50.777c1.821-1.821,4.009-3.101,6.337-4.136
				c-11.332-3.836-22.38-2.757-29.273,4.136c-11.396,11.396-7.14,34.13,9.507,50.777c13.987,13.987,32.194,19.085,44.44,13.643
				C187.873,459.238,180.351,454.682,173.773,448.103z"/>
		</g>
	</g>
	<g>
		<g>
			<path style="fill:#05A1B9;" d="M285.33,457.609c-11.396-11.396-7.14-34.131,9.507-50.777c6.579-6.579,14.1-11.135,21.505-13.643
				c-12.247-5.441-30.453-0.345-44.44,13.643c-16.647,16.646-20.903,39.381-9.507,50.777c6.893,6.893,17.941,7.973,29.273,4.136
				C289.34,460.71,287.152,459.431,285.33,457.609z"/>
		</g>
	</g>
</g>
<g>
</g>
<g>
</g>
<g>
</g>
<g>
</g>
<g>
</g>
<g>
</g>
<g>
</g>
<g>
</g>
<g>
</g>
<g>
</g>
<g>
</g>
<g>
</g>
<g>
</g>
<g>
</g>
<g>
</g>
</svg>
