<?xml version="1.0" encoding="iso-8859-1"?>
<!-- Generator: Adobe Illustrator 19.0.0, SVG Export Plug-In . SVG Version: 6.00 Build 0)  -->
<svg version="1.1" id="Layer_1" xmlns="http://www.w3.org/2000/svg" xmlns:xlink="http://www.w3.org/1999/xlink" x="0px" y="0px"
	 viewBox="0 0 350 350" style="enable-background:new 0 0 350 350;" xml:space="preserve">
<g id="XMLID_1000_">
	<path id="XMLID_1001_" style="fill:#EA348B;" d="M226.613,196.906c0,0-32.409-6.906-51.613-6.906
		c-19.205,0-51.615,6.906-51.615,6.906c-20,20-69.998,60-59.998,100c5.081,20.329,20.494,25.155,34.425,22.365
		C105.965,337.067,115,350,115,350s56.62,0,60,0c7.318,0,60,0,60,0s8.645-13.285,16.654-30.835
		c14.068,3.022,29.813-1.67,34.959-22.259C296.613,256.906,246.613,216.906,226.613,196.906z"/>
	<path id="XMLID_1002_" style="fill:#AF2768;" d="M123.385,196.906c-20,20-69.998,60-59.998,100
		c5.081,20.329,20.494,25.155,34.425,22.365C105.965,337.067,115,350,115,350s56.62,0,60,0c0,0,0-92.8,0-160
		C155.795,190,123.385,196.906,123.385,196.906z"/>
	<ellipse id="XMLID_1003_" style="fill:#EE5DA2;" cx="115" cy="305" rx="40" ry="45"/>
	<circle id="XMLID_1004_" style="fill:#FFFFFF;" cx="114.375" cy="317.5" r="17.5"/>
	<ellipse id="XMLID_1005_" style="fill:#F7AED1;" cx="235" cy="305" rx="40" ry="45"/>
	<circle id="XMLID_1006_" style="fill:#FFFFFF;" cx="235.625" cy="317.5" r="17.5"/>
	<path id="XMLID_1007_" style="fill:#EA348B;" d="M231.974,1.144c-57.949-15.551-45.943,132.624-45.943,132.624l9.658,2.592
		l9.658,2.592C205.347,138.951,289.923,16.695,231.974,1.144z"/>
	<path id="XMLID_1008_" style="fill:#AF2768;" d="M118.026,1.144c-57.949,15.551,26.627,137.808,26.627,137.808l9.658-2.592
		l9.658-2.592C163.97,133.768,175.976-14.408,118.026,1.144z"/>
	<path id="XMLID_1009_" style="fill:#FFFFFF;" d="M123.21,20.46c-22.05,5.918,17.649,73.963,21.83,81.255
		C144.962,91.478,144.582,14.733,123.21,20.46z"/>
	<path id="XMLID_1010_" style="fill:#FFFFFF;" d="M226.79,20.46c-21.372-5.728-21.752,71.018-21.83,81.255
		C209.141,94.423,248.84,26.378,226.79,20.46z"/>
	<path id="XMLID_1011_" style="fill:#F7AED1;" d="M244.518,131.892C240.496,97.054,210.916,70,175,70s-49.707,160,0,160
		s90-26.863,90-60C265,155.529,257.315,142.255,244.518,131.892z"/>
	<path id="XMLID_1012_" style="fill:#EA348B;" d="M105.482,131.892C92.686,142.255,85,155.529,85,170c0,33.137,40.293,60,90,60v-20
		V110V70C139.084,70,109.504,97.054,105.482,131.892z"/>
	<circle id="XMLID_1013_" style="fill:#003638;" cx="145" cy="150" r="7.5"/>
	<circle id="XMLID_1014_" style="fill:#003638;" cx="205" cy="150" r="7.5"/>
	<path id="XMLID_1015_" style="fill:#FFFFFF;" d="M192.777,165.556c-7.27,0-13.723,3.492-17.777,8.889
		c-4.054-5.397-10.508-8.889-17.777-8.889c-12.273,0-22.223,9.949-22.223,22.222C135,200.05,144.949,210,157.223,210
		c7.27,0,13.724-3.492,17.777-8.889c4.055,5.397,10.508,8.889,17.777,8.889C205.05,210,215,200.05,215,187.778
		C215,175.505,205.051,165.556,192.777,165.556z"/>
	<path id="XMLID_1016_" style="fill:#003638;" d="M190,170.556c0,6.627-6.716,15-15,15s-15-8.373-15-15c0-6.628,6.716-7.5,15-7.5
		S190,163.928,190,170.556z"/>
</g>
<g>
</g>
<g>
</g>
<g>
</g>
<g>
</g>
<g>
</g>
<g>
</g>
<g>
</g>
<g>
</g>
<g>
</g>
<g>
</g>
<g>
</g>
<g>
</g>
<g>
</g>
<g>
</g>
<g>
</g>
</svg>
