<?xml version="1.0" encoding="iso-8859-1"?>
<!-- Generator: Adobe Illustrator 19.0.0, SVG Export Plug-In . SVG Version: 6.00 Build 0)  -->
<svg version="1.1" id="Layer_1" xmlns="http://www.w3.org/2000/svg" xmlns:xlink="http://www.w3.org/1999/xlink" x="0px" y="0px"
	 viewBox="0 0 462.473 462.473" style="enable-background:new 0 0 462.473 462.473;" xml:space="preserve">
<g>
	<g>
		<g>
			<path style="fill:#FFC855;" d="M412.64,167.41c7.209-15.302,10.798-32.642,9.637-50.933c-3.329-52.451-47.1-95.107-99.617-97.159
				C263.324,17,214.492,64.416,214.492,123.236c0,21.442,6.522,41.337,17.658,57.877c5.7,8.465,3.824,20.045-4.766,25.555
				c-36.047,23.121-78.881,36.569-124.892,36.569c-30.738,0-60.059-6.013-86.899-16.882c-7.9-3.199-16.485,3.033-15.518,11.501
				c13.205,115.586,111.295,205.38,230.417,205.38c46.37,0,89.558-13.606,125.795-37.043c64.89-41.97,86.255-125.053,56.124-193.62
				C406.038,198.072,405.89,181.739,412.64,167.41z"/>
		</g>
	</g>
	<g>
		<g>
			<path style="fill:#FFB44B;" d="M350.366,24.351c-8.819-2.898-18.111-4.658-27.707-5.033
				C263.324,17,214.492,64.416,214.492,123.236c0,21.441,6.521,41.337,17.658,57.876c5.7,8.465,3.825,20.044-4.765,25.554
				c-36.047,23.122-78.881,36.569-124.893,36.569c-30.739,0-60.061-6.013-86.902-16.883c-7.899-3.199-16.482,3.032-15.515,11.499
				C13.278,353.44,111.369,443.236,230.492,443.236c6.952,0,13.803-0.402,20.599-1.001C118.89,429.72,94.492,291.236,94.492,291.236
				c102.989-11.118,153.927-55.789,178.467-90.94c10.246-14.675,13.591-33.303,8.989-50.599c-2.246-8.443-3.457-17.306-3.457-26.461
				C278.492,77.019,308.664,37.893,350.366,24.351z"/>
		</g>
	</g>
	<g>
		<g>
			<path style="fill:#FFAA4B;" d="M318.492,235.236c0,0-78,52.667-168,64c0,0,34,41.5,72,48c19.725,3.374,72-56,72-56
				L318.492,235.236z"/>
		</g>
	</g>
	<path style="fill:#FFB44B;" d="M318.492,235.236c-67.333,72.492-176,91.508-176,91.508c16.397,23.623,46.983,38.943,79.003,41.432
		c-5.002,4.245-10.019,7.984-15.003,11.06c0,0,61.333,12,96-16C327.976,342.653,353.825,289.728,318.492,235.236z"/>
	<g>
		<g>
			<path style="fill:#6E4141;" d="M362.492,123.236L362.492,123.236c-6.627,0-12-5.373-12-12v-8c0-6.627,5.373-12,12-12l0,0
				c6.627,0,12,5.373,12,12v8C374.492,117.864,369.119,123.236,362.492,123.236z"/>
		</g>
	</g>
	<g>
		<g>
			<path style="fill:#E15050;" d="M415.253,146.978c10.149-0.592,27.371-2.499,42.156-8.573c5.986-2.459,6.837-10.516,1.631-14.359
				c-8.22-6.068-23.688-13.432-40.089-32.256c-4.886-5.608-14.161-2.55-14.693,4.869c-0.921,12.843-1.334,29.171,0.827,42.282
				C405.89,143.828,410.307,147.266,415.253,146.978z"/>
		</g>
	</g>
	<g>
		<g>
			<path style="fill:#D24146;" d="M403.883,127.747c0.249,3.873,0.619,7.657,1.202,11.193c0.805,4.888,5.223,8.326,10.168,8.038
				c10.149-0.592,27.371-2.499,42.155-8.573c3.032-1.246,4.734-3.928,5.011-6.771C449.424,132.108,423.339,132.303,403.883,127.747z
				"/>
		</g>
	</g>
	<g>
		<g>
			<path style="fill:#FFD680;" d="M358.492,382.416c-2.195,0-4.383-0.898-5.969-2.672c-2.938-3.297-2.656-8.352,0.641-11.297
				c27.734-24.773,42.789-62.414,40.281-100.688c-0.289-4.406,3.055-8.219,7.461-8.508c4.594-0.18,8.211,3.055,8.508,7.461
				c2.828,43.148-14.219,85.641-45.594,113.672C362.297,381.744,360.39,382.416,358.492,382.416z"/>
		</g>
	</g>
	<g>
		<g>
			<path style="fill:#FFDE99;" d="M395.367,243.26c-3.391,0-6.539-2.172-7.625-5.57c-1.32-4.148-2.875-8.266-4.625-12.234
				c-0.484-1.109-0.938-2.195-1.367-3.297c-1.625-4.102,0.391-8.75,4.5-10.375c4.07-1.625,8.75,0.383,10.375,4.5
				c0.367,0.914,0.742,1.828,1.141,2.742c1.969,4.461,3.734,9.117,5.227,13.805c1.336,4.211-0.984,8.711-5.195,10.055
				C396.984,243.143,396.172,243.26,395.367,243.26z"/>
		</g>
	</g>
</g>
<g>
</g>
<g>
</g>
<g>
</g>
<g>
</g>
<g>
</g>
<g>
</g>
<g>
</g>
<g>
</g>
<g>
</g>
<g>
</g>
<g>
</g>
<g>
</g>
<g>
</g>
<g>
</g>
<g>
</g>
</svg>
