<?xml version="1.0" encoding="iso-8859-1"?>
<!-- Generator: Adobe Illustrator 19.0.0, SVG Export Plug-In . SVG Version: 6.00 Build 0)  -->
<svg version="1.1" id="Layer_1" xmlns="http://www.w3.org/2000/svg" xmlns:xlink="http://www.w3.org/1999/xlink" x="0px" y="0px"
	 viewBox="0 0 344.63 344.63" style="enable-background:new 0 0 344.63 344.63;" xml:space="preserve">
<g id="XMLID_985_">
	<path id="XMLID_986_" style="fill:#CCF8F3;" d="M182.315,112.315c0,52.467,37.532,95,90,95s61.375-38.247,70-90
		c10-60-12.532-100-65-100S182.315,59.848,182.315,112.315z"/>
	<path id="XMLID_987_" style="fill:#00D7DF;" d="M272.315,177.315c17.468,0,22.368-5.589,25.89-11.314
		c7.071-11.492,10.902-31.92,14.519-53.618c4.099-24.594,1.45-44.601-7.268-54.892c-8.621-10.177-23.313-10.177-28.141-10.177
		c-35.841,0-65,29.159-65,65c0,18.118,6.152,34.73,17.322,46.777C240.692,171.013,255.45,177.315,272.315,177.315z"/>
	<path id="XMLID_988_" style="fill:#00D7DF;" d="M223.928,174.221l-6.047,5.083c-13.365-7.482-28.938-11.99-45.566-11.99
		c-19.205,0-37.002,6.01-51.615,15.675v-8.768c-20,20-69.998,60-59.998,100c5.081,20.329,20.494,25.155,34.425,22.365
		c8.153,17.795,17.188,30.728,17.188,30.728s56.62,0,60,0c7.318,0,60,0,60,0s8.645-13.285,16.654-30.835
		c14.068,3.022,29.812-1.67,34.959-22.259C293.928,234.221,243.928,194.221,223.928,174.221z"/>
	<path id="XMLID_989_" style="fill:#00D7DF;" d="M162.315,112.315c0,52.467-37.532,95-90,95s-61.375-38.247-70-90
		c-10-60,12.532-100,65-100S162.315,59.848,162.315,112.315z"/>
	<path id="XMLID_990_" style="fill:#00A0A6;" d="M72.315,177.315c-17.468,0-22.368-5.589-25.89-11.314
		c-7.071-11.492-10.902-31.92-14.519-53.618c-4.099-24.594-1.45-44.601,7.268-54.892c8.621-10.177,23.313-10.177,28.141-10.177
		c35.841,0,65,29.159,65,65c0,18.118-6.152,34.73-17.322,46.777C103.938,171.013,89.18,177.315,72.315,177.315z"/>
	<path id="XMLID_991_" style="fill:#00A0A6;" d="M120.7,182.99v-8.768c-20,20-69.998,60-59.998,100
		c5.081,20.329,20.494,25.155,34.425,22.365c8.153,17.795,17.188,30.728,17.188,30.728s56.62,0,60,0c0,0,0-92.8,0-160
		C153.11,167.315,135.313,173.325,120.7,182.99z"/>
	<path id="XMLID_992_" style="fill:#CCF8F3;" d="M197.037,287.315c0,22.09,15.916,40,35.557,40s35.557-17.91,35.557-40
		c0-22.089-15.916-40-35.557-40S197.037,265.226,197.037,287.315z"/>
	<path id="XMLID_993_" style="fill:#00A0A6;" d="M217.593,298.428c0,8.591,6.966,15.552,15.557,15.552s15.557-6.961,15.557-15.552
		c0-8.593-6.966-15.557-15.557-15.557C224.559,282.872,217.593,289.835,217.593,298.428z"/>
	<path id="XMLID_994_" style="fill:#00D7DF;" d="M76.48,287.315c0,22.09,15.916,40,35.557,40s35.557-17.91,35.557-40
		c0-22.089-15.916-40-35.557-40S76.48,265.226,76.48,287.315z"/>
	<path id="XMLID_995_" style="fill:#00A0A6;" d="M97.037,298.428c0,8.591,6.966,15.552,15.557,15.552s15.557-6.961,15.557-15.552
		c0-8.593-6.966-15.557-15.557-15.557S97.037,289.835,97.037,298.428z"/>
	<path id="XMLID_996_" style="fill:#CCF8F3;" d="M212.982,215.648c-9-3-9.233-11.637-1-21.333
		c12.193-14.361,24.606-29.823,28.825-35.106c13.408-13.971,21.508-32.09,21.508-51.894c0-44.182-40.293-80-90-80s-90,35.818-90,80
		c0,24.368,12.26,46.188,31.593,60.861c0.814,9.413,4.215,31.703,18.407,49.139c13.156,16.162,39.209,30,60,30c50,0,60-30,60-30
		l-20-10C232.315,207.315,222.469,218.811,212.982,215.648z"/>
	<path id="XMLID_997_" style="fill:#00D7DF;" d="M172.316,27.315L172.316,27.315c-49.708,0-90.001,35.818-90.001,80
		c0,24.368,12.26,46.188,31.593,60.861c0.814,9.413,4.215,31.703,18.407,49.139c9.139,11.227,24.502,21.328,40.001,26.452
		L172.316,27.315L172.316,27.315z"/>
	<circle id="XMLID_998_" style="fill:#003638;" cx="122.315" cy="127.315" r="7.5"/>
	<circle id="XMLID_999_" style="fill:#003638;" cx="222.315" cy="127.315" r="7.5"/>
</g>
<g>
</g>
<g>
</g>
<g>
</g>
<g>
</g>
<g>
</g>
<g>
</g>
<g>
</g>
<g>
</g>
<g>
</g>
<g>
</g>
<g>
</g>
<g>
</g>
<g>
</g>
<g>
</g>
<g>
</g>
</svg>
