<?xml version="1.0" encoding="iso-8859-1"?>
<!-- Generator: Adobe Illustrator 19.0.0, SVG Export Plug-In . SVG Version: 6.00 Build 0)  -->
<svg version="1.1" id="Layer_1" xmlns="http://www.w3.org/2000/svg" xmlns:xlink="http://www.w3.org/1999/xlink" x="0px" y="0px"
	 viewBox="0 0 460 460" style="enable-background:new 0 0 460 460;" xml:space="preserve">
<g id="XMLID_2732_">
	<path id="XMLID_1404_" style="fill:#85838C;" d="M355,160l-14.013,210.199C337.618,420.733,295.646,460,245,460l0,0
		c-50.646,0-92.618-39.267-95.987-89.801L135,160c0-33.137,26.863-60,60-60h100C328.137,100,355,126.863,355,160z"/>
	<path id="XMLID_1506_" style="fill:#EA8D39;" d="M345,442.1v7.9c0,5.523-4.477,10-10,10h-90h-90c-5.523,0-10-4.477-10-10v-7.9
		c0-11.832,10.216-21.078,21.99-19.901L245,430l78.01-7.801C334.784,421.021,345,430.267,345,442.1z"/>
	<path id="XMLID_1401_" style="fill:#D3792F;" d="M345,442.1v7.9c0,5.523-4.477,10-10,10h-90h-90c-5.523,0-10-4.477-10-10v-7.9
		c0-2.189,0.352-4.289,0.996-6.251c2.425,7.011,9.068,12.054,16.904,12.054H245h82.1c7.836,0,14.479-5.043,16.904-12.054
		C344.648,437.811,345,439.91,345,442.1z"/>
	<path id="XMLID_1502_" style="fill:#A19DA8;" d="M355,160l-6.375,95.618c-2.245,33.675-15.349,65.885-37.999,90.906
		C291.365,367.801,268.94,380,245,380s-46.365-12.199-65.627-33.476c-22.65-25.021-35.754-57.231-37.999-90.906L135,160
		c0-33.137,26.863-60,60-60h100C328.137,100,355,126.863,355,160z"/>
	<path id="XMLID_1315_" style="fill:#B2ADBC;" d="M352.593,143.18C332.985,182.773,292.176,210,245,210l0,0
		c-47.175,0-87.985-27.227-107.593-66.82C144.682,118.233,167.704,100,195,100h100C322.296,100,345.318,118.233,352.593,143.18z"/>
	<path id="XMLID_1508_" style="fill:#312F34;" d="M295,50v60H195V50c0-27.614,22.386-50,50-50l0,0C272.614,0,295,22.386,295,50z"/>
	<path id="XMLID_816_" style="fill:#EA8D39;" d="M325.923,108.589C304.587,128.094,276.188,140,245,140l0,0
		c-31.187,0-59.587-11.906-80.923-31.411C173.107,103.142,183.684,100,195,100h50c11.046,0,20-8.954,20-20c0-16.569,13.431-30,30-30
		v50C306.316,100,316.893,103.142,325.923,108.589z"/>
	<path id="XMLID_1322_" style="fill:#D3792F;" d="M295,50v11.401C282.869,65.249,274.077,76.596,274.077,90c0,11.046-8.954,20-20,20
		h-50c-10.533,0-20.424,2.725-29.025,7.494c-3.833-2.756-7.499-5.728-10.975-8.905C173.107,103.142,183.684,100,195,100h50
		c11.046,0,20-8.954,20-20C265,63.431,278.431,50,295,50z"/>
	<path id="XMLID_1393_" style="fill:#F6B257;" d="M106.843,66c-1.161-1.719-1.843-3.782-1.843-6c0-5.635,4.354-10.311,9.975-10.712
		l110.076-7.863C235.831,40.655,245,49.193,245,60c0,2.105-0.357,4.119-0.997,6H106.843z"/>
	<path id="XMLID_2106_" style="fill:#D3792F;" d="M225.051,78.575l-110.076-7.863C109.354,70.311,105,65.634,105,60h140l0,0
		C245,70.807,235.831,79.345,225.051,78.575z"/>
	<path id="XMLID_1457_" style="fill:#312F34;" d="M195,100v180c0,33.137-26.863,60-60,60l0,0V160C135,126.863,161.863,100,195,100z"
		/>
	<path id="XMLID_887_" style="fill:#4D4A51;" d="M175,103.428V240c0,19.679-9.477,37.139-24.114,48.077
		c-6.548,4.893-15.886,0.085-15.886-8.089V159.143C135,133.021,151.699,111.666,175,103.428z"/>
	<path id="XMLID_2104_" style="fill:#312F34;" d="M295,100L295,100v180c0,33.137,26.863,60,60,60V160
		C355,126.863,328.137,100,295,100z"/>
	<path id="XMLID_2094_" style="fill:#4D4A51;" d="M315,103.428V240c0,19.679,9.477,37.139,24.114,48.077
		c6.548,4.893,15.886,0.085,15.886-8.089V158.917C355,132.794,338.301,111.666,315,103.428z"/>
	<path id="XMLID_1403_" style="fill:#4D4A51;" d="M275,25c0,8.284-6.716,15-15,15s-15-6.716-15-15s6.716-15,15-15S275,16.716,275,25
		z"/>
	<path id="XMLID_1493_" style="fill:#B2ADBC;" d="M260,25c0,2.761-2.239,5-5,5s-5-2.239-5-5s2.239-5,5-5
		C257.761,20,260,22.239,260,25z"/>
</g>
<g>
</g>
<g>
</g>
<g>
</g>
<g>
</g>
<g>
</g>
<g>
</g>
<g>
</g>
<g>
</g>
<g>
</g>
<g>
</g>
<g>
</g>
<g>
</g>
<g>
</g>
<g>
</g>
<g>
</g>
</svg>
